<?xml version="1.0" encoding="utf-8"?>
<!-- Generator: Adobe Illustrator 25.0.0, SVG Export Plug-In . SVG Version: 6.00 Build 0)  -->
<svg version="1.1" id="Layer_1" xmlns="http://www.w3.org/2000/svg" xmlns:xlink="http://www.w3.org/1999/xlink" x="0px" y="0px"
	 viewBox="0 0 242 242" style="enable-background:new 0 0 242 242;" xml:space="preserve">
<style type="text/css">
	.st0{fill-rule:evenodd;clip-rule:evenodd;fill:url(#SVGID_1_);}
	.st1{fill:none;}
</style>
<linearGradient id="SVGID_1_" gradientUnits="userSpaceOnUse" x1="0.835" y1="120.951" x2="241.07" y2="120.951">
	<stop  offset="0" style="stop-color:#00AAF4"/>
	<stop  offset="1" style="stop-color:#00D258"/>
</linearGradient>
<path class="st0" d="M227.7,167.7c-16,0-32-2.7-48-8c-4-1.3-9.3,0-13.3,2.7L137,191.7C99.6,173,68.9,141,48.9,103.6l29.4-29.4
	c4-4,5.3-9.3,2.7-13.3c-4-14.7-6.7-30.7-6.7-46.7c0-8-5.3-13.3-13.3-13.3H14.2c-8,0-13.3,5.3-13.3,13.3
	c0,125.5,101.4,226.9,226.9,226.9c8,0,13.3-5.3,13.3-13.3V181C241.1,173,235.7,167.7,227.7,167.7z"/>
<path class="st1" d="M227.7,167.7c-16,0-32-2.7-48-8c-4-1.3-9.3,0-13.3,2.7L137,191.7C99.6,173,68.9,141,48.9,103.6l29.4-29.4
	c4-4,5.3-9.3,2.7-13.3c-4-14.7-6.7-30.7-6.7-46.7c0-8-5.3-13.3-13.3-13.3H14.2c-8,0-13.3,5.3-13.3,13.3
	c0,125.5,101.4,226.9,226.9,226.9c8,0,13.3-5.3,13.3-13.3V181C241.1,173,235.7,167.7,227.7,167.7z"/>
</svg>
